<svg version="1.0" xmlns="http://www.w3.org/2000/svg"
 width="800.000000pt" height="800.000000pt" viewBox="0 0 800.000000 800.000000"
 preserveAspectRatio="xMidYMid meet">

<g transform="translate(0.000000,800.000000) scale(0.100000,-0.100000)"
fill="#000000" stroke="none">
<path d="M4248 5514 c-17 -9 -32 -28 -39 -53 -11 -37 -13 -38 -83 -54 -109
-25 -194 -37 -272 -37 -95 0 -129 8 -157 36 -50 50 -111 53 -147 7 -19 -24
-20 -41 -20 -247 0 -177 3 -226 14 -242 20 -28 120 -72 203 -89 89 -19 261
-19 360 0 43 8 81 15 86 15 4 0 7 -31 7 -70 l0 -70 -90 0 -90 0 0 -345 0 -345
-67 0 c-84 0 -140 -24 -179 -76 l-29 -37 -3 -189 -3 -188 -100 0 -99 0 0 168
c0 92 0 324 0 515 l0 348 -29 30 c-26 26 -36 29 -89 29 -32 0 -94 -9 -136 -20
-248 -63 -428 -244 -493 -495 l-19 -70 -59 -2 c-33 -1 -65 -2 -72 -2 -8 -1
-12 -50 -11 -183 0 -101 0 -213 -1 -250 l-1 -68 -85 0 -85 0 0 205 c0 214 -7
254 -45 269 -9 3 -108 6 -220 6 -174 0 -212 -3 -267 -20 -53 -16 -141 -65
-203 -114 -6 -5 -89 39 -220 118 -115 69 -217 126 -228 126 -23 0 -58 -18 -74
-39 -16 -21 -16 -81 0 -103 7 -9 104 -71 215 -138 111 -67 202 -123 202 -124
0 -2 -8 -23 -17 -47 -14 -37 -18 -92 -21 -356 l-4 -313 -118 0 -119 0 -3 138
-3 137 -215 0 c-242 0 -283 -8 -366 -71 l-45 -35 -184 111 c-123 74 -193 110
-213 110 -64 0 -105 -82 -68 -136 8 -11 96 -70 195 -130 100 -60 181 -112 181
-116 0 -5 -63 -8 -141 -8 l-141 0 -29 -29 c-54 -54 -66 -25 226 -531 65 -113
133 -230 150 -260 17 -30 42 -60 55 -67 20 -10 653 -13 3041 -13 l3016 0 34
28 c19 15 253 248 522 517 437 440 487 494 487 522 0 19 -10 43 -24 60 l-24
28 -475 3 -475 3 -4 24 c-5 22 10 33 174 131 98 59 186 116 194 128 38 54 -2
136 -67 136 -27 0 -208 -100 -375 -207 -18 -11 -24 -10 -45 8 -13 12 -53 36
-89 53 l-65 31 -225 0 -225 0 -3 -152 -3 -153 -152 0 -153 0 4 98 c2 53 5 102
7 108 1 5 85 59 184 119 100 59 189 117 197 129 18 26 18 59 -1 95 -34 66 -72
57 -267 -60 -93 -56 -170 -100 -171 -98 -129 209 -294 311 -509 313 l-88 1 0
152 c0 174 -10 232 -54 322 -55 113 -145 194 -268 244 -46 18 -80 22 -253 27
l-200 5 -5 383 -5 384 -28 24 c-32 27 -60 30 -99 8z m-60 -376 l-3 -103 -70
-19 c-88 -23 -288 -26 -355 -4 l-45 14 -3 84 -3 85 148 1 c107 1 171 7 233 22
47 10 89 20 93 21 4 0 6 -45 5 -101z m614 -636 c79 -39 129 -93 158 -169 16
-44 20 -78 20 -183 l0 -130 -390 0 -390 0 0 261 0 261 268 -4 267 -3 67 -33z
m-1444 -264 l-3 -203 -197 -3 c-221 -3 -209 -8 -181 74 49 145 158 255 306
310 34 13 65 23 70 23 4 1 6 -90 5 -201z m2 -543 l0 -165 -275 0 -275 0 0 165
0 165 275 0 275 0 0 -165z m1618 -274 l2 -421 -535 0 -535 0 0 418 c0 230 2
421 4 423 2 2 242 4 533 3 l528 -1 3 -422z m-2698 304 l0 -115 -255 0 -255 0
15 37 c35 83 100 141 198 174 39 14 83 18 175 19 l122 0 0 -115z m3124 27 c87
-41 149 -100 190 -183 42 -83 54 -170 36 -252 l-13 -56 -163 -3 -163 -3 -66
-65 -65 -64 0 326 c0 251 3 328 13 332 6 3 47 4 89 2 60 -3 93 -11 142 -34z
m-1666 -564 l-3 -163 -987 -3 -988 -2 0 165 0 165 990 0 990 0 -2 -162z m3791
-113 c-2 -2 -181 -182 -398 -400 l-394 -395 -2954 2 -2955 3 -115 200 c-63
110 -132 230 -154 268 l-38 67 2292 0 2292 0 130 130 130 130 1084 0 c596 0
1082 -2 1080 -5z"/>
</g>
</svg>